# xmcd
#
# Track frame offsets: 
#        150
#        12358
#        22757
#        35911
#        44243
#        58549
#        67606
#        81331
#        88562
#        99124
#        110048
#        120004
#        129134
#        141159
#        154379
#        165665
#        178776
#        192175
#        206983
#        219904
#        231521
#        245108
#        257224
#        270919
#        284144
#
# Disc length: 3956 seconds
#
# Revision: 0
# Processed by: cddbd v1.5.1PL2 Copyright (c) Steve Scherf et al.
# Submitted via: ExactAudioCopy v0.95b3
#
DISCID=680f7219
DTITLE=Louis Jordan - The 'V' Discs and More
DYEAR=2000
DGENRE=R&B
TTITLE0=Is you is or is you ain't my baby
TTITLE1=Knock me a kiss
TTITLE2=(I'm gonna move to the) Outskirts of town
TTITLE3=I've found a new baby
TTITLE4=Five guys named Moe
TTITLE5=Jumpin' at the Jubilee
TTITLE6=You can't get that no more
TTITLE7=The end of my worry
TTITLE8=How high am I?
TTITLE9=Hey now, let's live
TTITLE10=Deacon Jones
TTITLE11=I like 'em fat like that
TTITLE12=Bahama Joe
TTITLE13=Nobody but me
TTITLE14=Don't worry 'bout that mule
TTITLE15=It's so easy
TTITLE16=Inflation blues
TTITLE17=Why'd you do it baby
TTITLE18=Salt Pork, West Virigina
TTITLE19=That chick's too young to fry
TTITLE20=Texas and Pacific
TTITLE21=Reet, petite and gone
TTITLE22=Sure had a wonderful time
TTITLE23=Open the door, Richard
TTITLE24=Barnyard boogie
EXTD=
EXTT0=
EXTT1=
EXTT2=
EXTT3=
EXTT4=
EXTT5=
EXTT6=
EXTT7=
EXTT8=
EXTT9=
EXTT10=
EXTT11=
EXTT12=
EXTT13=
EXTT14=
EXTT15=
EXTT16=
EXTT17=
EXTT18=
EXTT19=
EXTT20=
EXTT21=
EXTT22=
EXTT23=
EXTT24=
PLAYORDER=
